<mxfile host="app.diagrams.net" modified="2023-03-28T00:21:52.972Z" agent="Mozilla/5.0 (Windows NT 10.0; Win64; x64) AppleWebKit/537.36 (KHTML, like Gecko) Chrome/110.0.0.0 Safari/537.36 OPR/96.0.0.0" version="21.1.1" etag="D5-SI8eVcLliNmx6s5hA" type="github">
  <diagram name="PÃ¡gina-1" id="mnO0KJmOZL4hrGXl-QA-">
    <mxGraphModel>
      <root>
        <mxCell id="0" />
        <mxCell id="1" parent="0" />
      </root>
    </mxGraphModel>
  </diagram>
</mxfile>
